<svg width="16" height="17" viewBox="0 0 16 17" fill="none" xmlns="http://www.w3.org/2000/svg">
    <path d="M8.0236 16.5C5.78958 16.5 3.89381 15.7212 2.33628 14.1637C0.778761 12.6062 0 10.7104 0 8.4764C0 6.33677 0.723697 4.50393 2.17109 2.97788C3.61849 1.45182 5.39626 0.62586 7.50443 0.5C7.63029 0.5 7.76023 0.503776 7.89428 0.511328C8.02769 0.519508 8.15732 0.531465 8.28319 0.547198C7.79548 1.00344 7.41003 1.54999 7.12684 2.18684C6.84366 2.82433 6.70206 3.50492 6.70206 4.22861C6.70206 5.7704 7.24484 7.08407 8.33038 8.16962C9.41593 9.25516 10.7296 9.79793 12.2714 9.79793C13.0108 9.79793 13.6952 9.65634 14.3245 9.37316C14.9538 9.08997 15.4887 8.70452 15.9292 8.21681C15.9607 8.34267 15.9805 8.47231 15.9887 8.60572C15.9962 8.73976 16 8.86971 16 8.99557C15.8741 11.1037 15.0482 12.8815 13.5221 14.3289C11.9961 15.7763 10.1632 16.5 8.0236 16.5Z" fill="white" />
</svg>
    