<svg width="24" height="24" viewBox="0 0 24 24" fill="none" xmlns="http://www.w3.org/2000/svg">
    <g opacity="0.6">
    <path d="M12.0237 20C9.78967 20 7.8939 19.2212 6.33637 17.6637C4.77885 16.1062 4.00009 14.2104 4.00009 11.9764C4.00009 9.83677 4.72379 8.00393 6.17118 6.47788C7.61858 4.95182 9.39636 4.12586 11.5045 4C11.6304 4 11.7603 4.00378 11.8944 4.01133C12.0278 4.01951 12.1574 4.03147 12.2833 4.0472C11.7956 4.50344 11.4101 5.04999 11.1269 5.68684C10.8437 6.32433 10.7022 7.00492 10.7022 7.72861C10.7022 9.2704 11.2449 10.5841 12.3305 11.6696C13.416 12.7552 14.7297 13.2979 16.2715 13.2979C17.0109 13.2979 17.6953 13.1563 18.3246 12.8732C18.9539 12.59 19.4888 12.2045 19.9293 11.7168C19.9608 11.8427 19.9806 11.9723 19.9888 12.1057C19.9963 12.2398 20.0001 12.3697 20.0001 12.4956C19.8742 14.6037 19.0483 16.3815 17.5222 17.8289C15.9962 19.2763 14.1633 20 12.0237 20Z" fill="white"/>
    </g>
    </svg>
    