<svg width="16" height="16" viewBox="0 0 16 16" fill="none" xmlns="http://www.w3.org/2000/svg">
    <path d="M15.4667 0H9.84001C9.54134 0 9.30667 0.234667 9.30667 0.533333V2.864C9.30667 3.15733 9.54134 3.39733 9.84001 3.39733H10.72V5.58402H5.28001V3.39733H6.15999C6.45866 3.39733 6.69332 3.15733 6.69332 2.864V0.533333C6.69332 0.234667 6.45866 0 6.15999 0H0.533333C0.240005 0 0 0.234667 0 0.533333V2.864C0 3.15733 0.240005 3.39733 0.533333 3.39733H1.41865V11.632H0.533333C0.240005 11.632 0 11.872 0 12.1653V14.496C0 14.7947 0.240005 15.0293 0.533333 15.0293H6.15999C6.45866 15.0293 6.69333 14.7947 6.69333 14.496V12.1653C6.69333 11.872 6.45866 11.632 6.15999 11.632H5.28002V9.44535H10.72V11.632H9.84001C9.54134 11.632 9.30668 11.872 9.30668 12.1653V14.496C9.30668 14.7947 9.54134 15.0293 9.84001 15.0293H15.4667C15.76 15.0293 16 14.7947 16 14.496V12.1653C16 11.872 15.76 11.632 15.4667 11.632H14.5814V3.39734H15.4667C15.76 3.39734 16 3.15733 16 2.86401V0.533339C16 0.234672 15.76 0 15.4667 0Z" fill="#070F21"/>
    </svg>
    