<svg width="22" height="12" viewBox="0 0 22 12" fill="none" xmlns="http://www.w3.org/2000/svg">
<path fill-rule="evenodd" clip-rule="evenodd" d="M2.85648 0.0691094C1.16289 0.398561 0 1.98385 0 3.70814V10.7031C0 11.3594 0.532694 11.8921 1.18904 11.8921C1.84567 11.8921 2.37836 11.3594 2.37836 10.7031V9.51377H4.75673V10.7031C4.75673 11.3594 5.28942 11.8921 5.94605 11.8921C6.60239 11.8921 7.13509 11.3594 7.13509 10.7031V3.56772C7.13509 1.36787 5.13365 -0.373192 2.85648 0.0691094ZM2.37836 7.13541V3.56772C2.37836 2.91138 2.91219 2.37868 3.5674 2.37868C4.22289 2.37868 4.75673 2.91138 4.75673 3.56772V7.13541H2.37836ZM20.811 0.000343693H16.054C15.3976 0.000343693 14.8649 0.533038 14.8649 1.18938C14.8649 1.84573 15.3976 2.37871 16.054 2.37871H17.2433V10.7031C17.2433 11.3595 17.776 11.8922 18.4326 11.8922C19.0889 11.8922 19.6216 11.3595 19.6216 10.7031V2.37871H20.811C21.4673 2.37871 22 1.84573 22 1.18938C22 0.533038 21.4673 0.000343693 20.811 0.000343693ZM8.62154 1.18938C8.62154 0.533038 9.15452 0.000343693 9.81087 0.000343693C10.4672 0.000343693 11.0002 0.533038 11.0002 1.18938V9.5138H14.5676C15.2242 9.5138 15.7569 10.0468 15.7569 10.7031C15.7569 11.3595 15.2242 11.8922 14.5676 11.8922H8.62154V1.18938Z" fill="#070F21"/>
</svg>
