<svg width="40" height="40" viewBox="0 0 40 40" fill="none" xmlns="http://www.w3.org/2000/svg">
    <rect width="40" height="40" rx="20" fill="#F57E3B"/>
    <path d="M27.0339 23.7842C28.2706 21.7516 28.7195 19.3363 28.2957 16.9951C27.8719 14.6539 26.6048 12.5492 24.7341 11.0791C22.8634 9.60903 20.5187 8.87551 18.1437 9.0173C15.7687 9.1591 13.528 10.1664 11.8455 11.8486C10.1645 13.5315 9.15835 15.7719 9.01716 18.1462C8.87597 20.5206 9.60956 22.8645 11.0792 24.7347C12.5489 26.6049 14.6528 27.8719 16.9933 28.2961C19.3337 28.7203 21.7485 28.2724 23.7811 27.037L27.0734 30.3293C27.5047 30.7607 28.0898 31.003 28.6999 31.003C29.3099 31.003 29.895 30.7607 30.3263 30.3293C30.7577 29.898 31 29.3129 31 28.7028C31 28.0928 30.7577 27.5077 30.3263 27.0764L27.0339 23.7842ZM13.1217 24.3272C12.3861 23.5917 11.8026 22.7184 11.4046 21.7574C11.0065 20.7963 10.8016 19.7663 10.8016 18.726C10.8016 17.6858 11.0065 16.6557 11.4046 15.6947C11.8026 14.7336 12.3861 13.8604 13.1217 13.1248C14.6072 11.6393 16.622 10.8047 18.7229 10.8047C20.8238 10.8047 22.8386 11.6393 24.3241 13.1248C25.8096 14.6104 26.6442 16.6252 26.6442 18.726C26.6442 20.8269 25.8096 22.8417 24.3241 24.3272C21.2356 27.4157 16.2102 27.4157 13.1217 24.3272ZM29.05 29.0531C28.9563 29.1444 28.8306 29.1955 28.6998 29.1955C28.569 29.1955 28.4433 29.1444 28.3496 29.0531L25.2413 25.9448C25.3633 25.8344 25.483 25.7206 25.6003 25.6034C25.7176 25.4863 25.8314 25.3666 25.9417 25.2444L29.05 28.3527C29.1419 28.4461 29.1934 28.5719 29.1934 28.7029C29.1934 28.8339 29.1419 28.9597 29.05 29.0531Z" fill="white"/>
    <rect x="14.5" y="15.875" width="4.71429" height="2.35715" fill="white"/>
    <rect x="14.5" y="19.4108" width="8.25001" height="2.35715" fill="white"/>
    </svg>
    