<svg width="20" height="18" viewBox="0 0 20 18" fill="none" xmlns="http://www.w3.org/2000/svg">
    <path fill-rule="evenodd" clip-rule="evenodd" d="M12.1887 0.0353201L12.1899 0.0359137C12.8591 0.200707 13.2698 0.878746 13.1054 1.54769L9.32198 16.957C9.18467 17.5179 8.68575 17.9091 8.10899 17.9091C8.00858 17.9091 7.90821 17.8969 7.81082 17.8731C7.14101 17.7083 6.73027 17.0303 6.89475 16.3613L10.6781 0.951991C10.8417 0.284933 11.5188 -0.127035 12.1887 0.0353201ZM4.44245 14.3692C4.67864 14.6323 5.01736 14.783 5.37164 14.783C5.68076 14.783 5.9777 14.6689 6.20747 14.462C6.71953 14.0012 6.76104 13.209 6.30024 12.6964L2.93221 8.95446L6.30024 5.21203C6.76104 4.69996 6.71953 3.90776 6.20747 3.44697V3.44634C5.95939 3.22299 5.63713 3.10762 5.30573 3.12778C4.97188 3.14546 4.66549 3.29136 4.44245 3.53912L0.321556 8.11837C-0.107185 8.59499 -0.107185 9.31395 0.321556 9.79124L4.44245 14.3692ZM15.5575 3.53918C15.0967 3.02775 14.3054 2.98565 13.7924 3.44704C13.2804 3.90783 13.2389 4.70003 13.6997 5.21269L17.0677 8.95454L13.6997 12.697C13.2389 13.2091 13.2804 14.0013 13.7924 14.4627C14.0222 14.669 14.3191 14.7831 14.6283 14.7831C14.9825 14.7831 15.3213 14.6323 15.5575 14.3699L19.6783 9.79068C20.1071 9.31402 20.1071 8.59506 19.6783 8.11844L15.5575 3.53918Z" fill="#070F21"/>
    </svg>
    