<svg width="40" height="40" viewBox="0 0 40 40" fill="none" xmlns="http://www.w3.org/2000/svg">
    <rect width="40" height="40" rx="20" fill="#2DA94F" />
    <path d="M27.4667 12H21.84C21.5413 12 21.3067 12.2347 21.3067 12.5333V14.864C21.3067 15.1573 21.5413 15.3973 21.84 15.3973H22.72V17.584H17.28V15.3973H18.16C18.4587 15.3973 18.6933 15.1573 18.6933 14.864V12.5333C18.6933 12.2347 18.4587 12 18.16 12H12.5333C12.24 12 12 12.2347 12 12.5333V14.864C12 15.1573 12.24 15.3973 12.5333 15.3973H13.4187V23.632H12.5333C12.24 23.632 12 23.872 12 24.1653V26.496C12 26.7947 12.24 27.0293 12.5333 27.0293H18.16C18.4587 27.0293 18.6933 26.7947 18.6933 26.496V24.1653C18.6933 23.872 18.4587 23.632 18.16 23.632H17.28V21.4454H22.72V23.632H21.84C21.5413 23.632 21.3067 23.872 21.3067 24.1653V26.496C21.3067 26.7947 21.5413 27.0293 21.84 27.0293H27.4667C27.76 27.0293 28 26.7947 28 26.496V24.1653C28 23.872 27.76 23.632 27.4667 23.632H26.5814V15.3973H27.4667C27.76 15.3973 28 15.1573 28 14.864V12.5333C28 12.2347 27.76 12 27.4667 12Z" fill="white" />
</svg>
    