<svg width="20" height="20" viewBox="0 0 20 20" fill="none" xmlns="http://www.w3.org/2000/svg">
    <path d="M18.4887 1.51069C17.5426 0.563824 16.2176 0.011095 14.8794 0.000157574C13.5059 -0.0107798 12.1622 0.548199 11.1868 1.51069L8.73917 3.95871C9.08644 3.90051 9.43995 3.87043 9.79698 3.87043C10.4942 3.87043 11.1809 3.98371 11.8388 4.20637C12.0188 4.2673 12.1946 4.33605 12.3669 4.41183L13.2274 3.5513C13.629 3.14857 14.1864 2.90716 14.7544 2.88646C15.3805 2.86341 16.0055 3.10833 16.4485 3.5513C17.3364 4.43957 17.3364 5.88409 16.4485 6.77236L14.6833 8.5368L11.8118 11.4086C11.2536 11.9668 10.4048 12.1993 9.63995 12.0047C8.97316 11.8352 8.39543 11.3461 8.11809 10.7165C8.08527 10.6419 8.05676 10.5657 8.03254 10.4879L5.89623 12.6379C6.09545 12.936 6.32631 13.2125 6.58216 13.4637C7.15521 14.0262 7.85598 14.461 8.62004 14.7106C8.75753 14.7555 8.89699 14.7945 9.038 14.827C10.6833 15.2074 12.5016 14.7192 13.7333 13.5637C13.7735 13.5262 18.4887 8.81257 18.4887 8.81257C20.502 6.79931 20.502 3.52395 18.4887 1.51069ZM8.15988 15.7938C7.97981 15.7328 7.80403 15.6641 7.63176 15.5883C7.63176 15.5883 6.77122 16.4488 6.77122 16.4492C6.36732 16.8531 5.80834 17.0945 5.23765 17.1141C4.615 17.1352 3.98961 16.8914 3.55016 16.4488C2.66228 15.5609 2.66228 14.116 3.55016 13.2278L8.41261 8.41492C8.5134 8.31297 8.63605 8.23524 8.76378 8.17078C9.34776 7.87547 10.0606 7.84813 10.6653 8.09774C11.288 8.35438 11.8005 8.90867 11.9821 9.56061C11.9837 9.56608 11.9852 9.57155 11.9868 9.57702C11.9868 9.57702 14.145 7.41884 14.1462 7.41767C14.2032 7.36024 13.5216 6.629 13.452 6.55986C13.179 6.28916 12.8755 6.04854 12.5501 5.84346C11.8993 5.4337 11.1587 5.16417 10.3938 5.07511C8.85519 4.8962 7.23919 5.45011 6.14662 6.55127L1.50995 11.1876C-0.503316 13.2008 -0.503316 16.4762 1.50995 18.4894C2.46189 19.4418 3.79625 19.9953 5.14233 20C6.50131 20.0047 7.85051 19.4504 8.81183 18.4894L11.2595 16.0418C10.9122 16.1 10.5591 16.1297 10.2017 16.1297C9.50479 16.1297 8.81769 16.0168 8.15988 15.7938Z" fill="#070F21"/>
    </svg>
    