<svg width="26" height="12" viewBox="0 0 26 12" fill="none" xmlns="http://www.w3.org/2000/svg">
    <path d="M4.07841 3.36061C5.31825 3.36061 6.23181 3.6597 6.8191 4.25786C7.41727 4.84515 7.71635 5.7424 7.71635 6.94961V10.3592C7.71635 10.7724 7.59128 11.0987 7.34114 11.338C7.10187 11.5664 6.76473 11.6806 6.32969 11.6806C5.94904 11.6806 5.63365 11.5718 5.3835 11.3543C5.14424 11.1368 5.01373 10.8431 4.99198 10.4734C4.83972 10.8649 4.58413 11.1694 4.22523 11.3869C3.86633 11.6044 3.43674 11.7132 2.93646 11.7132C2.38179 11.7132 1.88151 11.6044 1.4356 11.3869C0.989695 11.1585 0.636232 10.8486 0.375214 10.457C0.125071 10.0546 0 9.6033 0 9.10301C0 8.5266 0.146823 8.06982 0.440468 7.73267C0.74499 7.38464 1.22352 7.1345 1.87607 6.98224C2.52862 6.82998 3.40955 6.75385 4.51888 6.75385H4.95935V6.55809C4.95935 6.17743 4.87234 5.90554 4.69833 5.7424C4.52432 5.56839 4.23067 5.48139 3.81739 5.48139C3.37149 5.48139 2.71894 5.63365 1.85976 5.93817C1.60961 6.02517 1.39754 6.06868 1.22352 6.06868C0.951629 6.06868 0.734114 5.97079 0.570978 5.77503C0.407841 5.57927 0.326273 5.32369 0.326273 5.00829C0.326273 4.76902 0.375214 4.57326 0.473096 4.421C0.570978 4.26874 0.728676 4.13279 0.946192 4.01316C1.32684 3.81739 1.80538 3.65969 2.38179 3.54006C2.95821 3.42043 3.52375 3.36061 4.07841 3.36061ZM3.62163 9.77187C4.01316 9.77187 4.33399 9.63593 4.58413 9.36403C4.83428 9.08126 4.95935 8.72236 4.95935 8.28733V8.09157H4.69833C4.00228 8.09157 3.50743 8.15682 3.21379 8.28733C2.92014 8.40697 2.77332 8.61361 2.77332 8.90725C2.77332 9.15739 2.84945 9.36403 3.00171 9.52717C3.16485 9.69031 3.37149 9.77187 3.62163 9.77187Z" fill="#070F21"/>
    <path d="M14.3357 3.36061C15.0318 3.36061 15.6463 3.52919 16.1792 3.86633C16.7121 4.20348 17.1254 4.68745 17.419 5.31825C17.7235 5.93817 17.8758 6.66141 17.8758 7.48796C17.8758 8.31452 17.7235 9.04864 17.419 9.69031C17.1254 10.332 16.7067 10.8323 16.1629 11.1912C15.63 11.5392 15.0209 11.7132 14.3357 11.7132C13.8028 11.7132 13.3134 11.6044 12.8675 11.3869C12.4325 11.1694 12.1008 10.8703 11.8724 10.4897C11.8398 10.8595 11.6929 11.1531 11.4319 11.3706C11.1818 11.5773 10.8501 11.6806 10.4368 11.6806C10.0018 11.6806 9.65373 11.5609 9.39271 11.3217C9.14257 11.0715 9.0175 10.7453 9.0175 10.3429V1.30509C9.0175 0.92444 9.15344 0.614481 9.42534 0.375214C9.69723 0.125071 10.0561 0 10.502 0C10.9262 0 11.2688 0.114196 11.5298 0.342587C11.7908 0.570978 11.9213 0.875499 11.9213 1.25615V4.50257C12.1606 4.15454 12.4923 3.87721 12.9165 3.67057C13.3515 3.46393 13.8246 3.36061 14.3357 3.36061ZM13.4385 9.54348C13.9388 9.54348 14.3249 9.36947 14.5968 9.02145C14.8687 8.66255 15.0046 8.15139 15.0046 7.48796C15.0046 6.85717 14.8687 6.3732 14.5968 6.03605C14.3357 5.6989 13.9551 5.53033 13.4548 5.53033C12.9436 5.53033 12.5521 5.70434 12.2802 6.05236C12.0083 6.38951 11.8724 6.87892 11.8724 7.52059C11.8724 8.17314 12.0083 8.67342 12.2802 9.02145C12.5521 9.36947 12.9382 9.54348 13.4385 9.54348Z" fill="#070F21"/>
    <path d="M22.7536 11.7132C21.4485 11.7132 20.4153 11.3434 19.654 10.6039C18.8927 9.86432 18.512 8.85831 18.512 7.58585C18.512 6.74841 18.6969 6.00886 19.0667 5.36719C19.4365 4.72552 19.9531 4.23067 20.6165 3.88265C21.2908 3.53462 22.0575 3.36061 22.9167 3.36061C23.3735 3.36061 23.8303 3.42043 24.2871 3.54006C24.7439 3.65969 25.1463 3.82827 25.4943 4.04578C25.8314 4.25242 26 4.56782 26 4.99198C26 5.32912 25.9184 5.60646 25.7553 5.82397C25.603 6.03061 25.4018 6.13393 25.1517 6.13393C24.9886 6.13393 24.8309 6.11218 24.6786 6.06868C24.5263 6.0143 24.3578 5.93817 24.1729 5.84029C23.9554 5.7424 23.7705 5.67171 23.6182 5.62821C23.4659 5.57383 23.2974 5.54664 23.1125 5.54664C22.0358 5.54664 21.4974 6.20462 21.4974 7.52059C21.4974 8.17314 21.6334 8.67342 21.9053 9.02145C22.188 9.3586 22.5904 9.52717 23.1125 9.52717C23.2974 9.52717 23.4659 9.50542 23.6182 9.46192C23.7813 9.40754 23.9608 9.33141 24.1566 9.23352C24.3741 9.13564 24.5481 9.06495 24.6786 9.02145C24.82 8.96707 24.9722 8.93988 25.1354 8.93988C25.3855 8.93988 25.5867 9.04864 25.739 9.26615C25.9021 9.47279 25.9837 9.74469 25.9837 10.0818C25.9837 10.2885 25.9402 10.4788 25.8532 10.6528C25.7662 10.8159 25.6465 10.941 25.4943 11.028C24.7438 11.4848 23.8303 11.7132 22.7536 11.7132Z" fill="#070F21"/>
    </svg>
    