<svg width="24" height="24" viewBox="0 0 24 24" fill="none" xmlns="http://www.w3.org/2000/svg">
    <g opacity="0.6">
    <path d="M12 15.0698C12.8527 15.0698 13.5775 14.7713 14.1744 14.1744C14.7713 13.5775 15.0698 12.8527 15.0698 12C15.0698 11.1473 14.7713 10.4225 14.1744 9.82558C13.5775 9.22868 12.8527 8.93023 12 8.93023C11.1473 8.93023 10.4225 9.22868 9.82558 9.82558C9.22868 10.4225 8.93023 11.1473 8.93023 12C8.93023 12.8527 9.22868 13.5775 9.82558 14.1744C10.4225 14.7713 11.1473 15.0698 12 15.0698ZM12 16.6047C10.7209 16.6047 9.63355 16.1571 8.73786 15.2621C7.84285 14.3664 7.39535 13.2791 7.39535 12C7.39535 10.7209 7.84285 9.63355 8.73786 8.73786C9.63355 7.84285 10.7209 7.39535 12 7.39535C13.2791 7.39535 14.3664 7.84285 15.2621 8.73786C16.1571 9.63355 16.6047 10.7209 16.6047 12C16.6047 13.2791 16.1571 14.3664 15.2621 15.2621C14.3664 16.1571 13.2791 16.6047 12 16.6047ZM1 12.7674V11.2326H4.83721V12.7674H1ZM19.1628 12.7674V11.2326H23V12.7674H19.1628ZM11.2326 4.83721V1H12.7674V4.83721H11.2326ZM11.2326 23V19.1628H12.7674V23H11.2326ZM6.39767 7.47209L4.04419 5.1186L5.1186 4.04419L7.47209 6.39767L6.39767 7.47209ZM18.8814 19.9558L16.5279 17.6023L17.6023 16.5279L19.9558 18.8814L18.8814 19.9558ZM17.6023 7.47209L16.5279 6.39767L18.8814 4.04419L19.9558 5.1186L17.6023 7.47209ZM5.1186 19.9558L4.04419 18.8814L6.39767 16.5279L7.47209 17.6023L5.1186 19.9558Z" fill="white"/>
    </g>
    </svg>
    