<svg xmlns="http://www.w3.org/2000/svg" width="24" height="24" viewBox="0 0 119.13 119.15">
    <g id="Layer_2" data-name="Layer 2">
      <g id="Layer_1-2" data-name="Layer 1">
        <g>
          <path d="M14.31,16.75A52.88,52.88,0,0,1,53,0q0,26.48,0,53Q26.47,52.93,0,53A53,53,0,0,1,14.31,16.75Z" style="fill: #fff"/>
          <path d="M117.3,52.4A53,53,0,0,0,66.17,13.22q0,26.48,0,53-26.46,0-52.94,0a53.25,53.25,0,0,0,6.06,24.57c-2,9.48-4.08,18.94-6.06,28.41,9.29-2,18.52-4.24,27.8-6.33a53.57,53.57,0,0,0,25.15,6.31,53,53,0,0,0,52.95-52.95A53.81,53.81,0,0,0,117.3,52.4Z" style="fill: #fff"/>
        </g>
      </g>
    </g>
  </svg>