<svg width="24" height="24" viewBox="0 0 24 24" fill="none" xmlns="http://www.w3.org/2000/svg">
    <path d="M7.4386 20.0176L12 17.2983L16.5614 20.0176C16.7173 20.115 16.883 20.1587 17.0585 20.1486C17.2339 20.1392 17.3899 20.0858 17.5263 19.9883C17.6628 19.8909 17.77 19.7595 17.848 19.5942C17.9259 19.4281 17.9357 19.2476 17.8772 19.0527L16.6784 13.9065L20.6842 10.4269C20.8402 10.2905 20.9376 10.1345 20.9766 9.9591C21.0156 9.78366 21.0058 9.61796 20.9474 9.46202C20.8889 9.30607 20.7965 9.1743 20.6702 9.0667C20.5431 8.95987 20.3821 8.89672 20.1871 8.87722L14.8947 8.40939L12.8187 3.52635C12.7407 3.35091 12.6288 3.21913 12.483 3.13102C12.3365 3.0437 12.1754 3.00003 12 3.00003C11.8246 3.00003 11.6639 3.0437 11.5181 3.13102C11.3715 3.21913 11.2593 3.35091 11.1813 3.52635L9.10526 8.40939L3.81287 8.87722C3.61793 8.89672 3.45731 8.95987 3.33099 9.0667C3.2039 9.1743 3.11111 9.30607 3.05263 9.46202C2.99415 9.61796 2.98441 9.78366 3.02339 9.9591C3.06238 10.1345 3.15984 10.2905 3.31579 10.4269L7.32164 13.9065L6.12281 19.0527C6.06433 19.2476 6.07407 19.4281 6.15205 19.5942C6.23002 19.7595 6.33723 19.8909 6.47368 19.9883C6.61014 20.0858 6.76608 20.1392 6.94152 20.1486C7.11696 20.1587 7.28265 20.115 7.4386 20.0176Z" fill="#FDBD00"/>
    </svg>
    