<svg width="12" height="7" viewBox="0 0 12 7" fill="none" xmlns="http://www.w3.org/2000/svg">
    <path d="M11.1249 6.12498C10.9749 6.27498 10.7999 6.34998 10.5999 6.34998C10.3999 6.34998 10.2249 6.27498 10.0749 6.12498L5.9999 2.04998L1.9249 6.12498C1.7749 6.27498 1.5999 6.34998 1.3999 6.34998C1.1999 6.34998 1.0249 6.27498 0.874902 6.12498C0.724902 5.97498 0.649902 5.79998 0.649902 5.59998C0.649902 5.39998 0.724902 5.22497 0.874902 5.07498L5.3749 0.574975C5.45824 0.491642 5.5539 0.428975 5.6619 0.386975C5.77057 0.345642 5.88324 0.324975 5.9999 0.324975C6.11657 0.324975 6.2289 0.345642 6.3369 0.386975C6.44557 0.428975 6.54157 0.491642 6.6249 0.574975L11.1249 5.07498C11.2749 5.22497 11.3499 5.39998 11.3499 5.59998C11.3499 5.79998 11.2749 5.97498 11.1249 6.12498Z" fill="#031B4E" />
</svg>
    