<svg width="40" height="40" viewBox="0 0 40 40" fill="none" xmlns="http://www.w3.org/2000/svg">
    <rect width="40" height="40" rx="20" fill="#4EB3D3"/>
    <path d="M29.8108 14.0004H25.0538C24.3974 14.0004 23.8647 14.5331 23.8647 15.1894C23.8647 15.8458 24.3974 16.3787 25.0538 16.3787H26.2431V24.7031C26.2431 25.3595 26.7758 25.8922 27.4324 25.8922C28.0888 25.8922 28.6215 25.3595 28.6215 24.7031V16.3787H29.8108C30.4671 16.3787 30.9998 15.8458 30.9998 15.1894C30.9998 14.5331 30.4671 14.0004 29.8108 14.0004Z" fill="white"/>
    <path d="M11.8565 14.0691C10.1629 14.3986 9 15.9839 9 17.7081V24.7031C9 25.3594 9.53269 25.8921 10.189 25.8921C10.8457 25.8921 11.3784 25.3594 11.3784 24.7031V23.5138H13.7567V24.7031C13.7567 25.3594 14.2894 25.8921 14.946 25.8921C15.6024 25.8921 16.1351 25.3594 16.1351 24.7031V17.5677C16.1351 15.3679 14.1336 13.6268 11.8565 14.0691ZM11.3784 21.1354V17.5677C11.3784 16.9114 11.9122 16.3787 12.5674 16.3787C13.2229 16.3787 13.7567 16.9114 13.7567 17.5677V21.1354H11.3784Z" fill="white"/>
    <path d="M18.8109 14.0004C18.1546 14.0004 17.6216 14.5331 17.6216 15.1894V25.8922H23.5676C24.2243 25.8922 24.757 25.3595 24.757 24.7031C24.757 24.0468 24.2243 23.5138 23.5676 23.5138H20.0002V15.1894C20.0002 14.5331 19.4673 14.0004 18.8109 14.0004Z" fill="white"/>
    </svg>
    