<svg width="40" height="40" viewBox="0 0 40 40" fill="none" xmlns="http://www.w3.org/2000/svg">
    <rect width="40" height="40" rx="20" fill="#337FF0" />
    <path d="M28.4887 11.5107C27.5426 10.5638 26.2176 10.0111 24.8794 10.0002C23.5059 9.98922 22.1622 10.5482 21.1868 11.5107L18.7392 13.9587C19.0864 13.9005 19.4399 13.8704 19.797 13.8704C20.4942 13.8704 21.1809 13.9837 21.8388 14.2064C22.0188 14.2673 22.1946 14.3361 22.3669 14.4118L23.2274 13.5513C23.629 13.1486 24.1864 12.9072 24.7544 12.8865C25.3805 12.8634 26.0055 13.1083 26.4485 13.5513C27.3364 14.4396 27.3364 15.8841 26.4485 16.7724L24.6833 18.5368L21.8118 21.4086C21.2536 21.9668 20.4048 22.1993 19.6399 22.0047C18.9732 21.8352 18.3954 21.3461 18.1181 20.7165C18.0853 20.6419 18.0568 20.5657 18.0325 20.4879L15.8962 22.6379C16.0954 22.936 16.3263 23.2125 16.5822 23.4637C17.1552 24.0262 17.856 24.461 18.62 24.7106C18.7575 24.7555 18.897 24.7945 19.038 24.827C20.6833 25.2074 22.5016 24.7192 23.7333 23.5637C23.7735 23.5262 28.4887 18.8126 28.4887 18.8126C30.502 16.7993 30.502 13.524 28.4887 11.5107ZM18.1599 25.7938C17.9798 25.7328 17.804 25.6641 17.6318 25.5883C17.6318 25.5883 16.7712 26.4488 16.7712 26.4492C16.3673 26.8531 15.8083 27.0945 15.2376 27.1141C14.615 27.1352 13.9896 26.8914 13.5502 26.4488C12.6623 25.5609 12.6623 24.116 13.5502 23.2278L18.4126 18.4149C18.5134 18.313 18.6361 18.2352 18.7638 18.1708C19.3478 17.8755 20.0606 17.8481 20.6653 18.0977C21.288 18.3544 21.8005 18.9087 21.9821 19.5606C21.9837 19.5661 21.9852 19.5716 21.9868 19.577C21.9868 19.577 24.145 17.4188 24.1462 17.4177C24.2032 17.3602 23.5216 16.629 23.452 16.5599C23.179 16.2892 22.8755 16.0485 22.5501 15.8435C21.8993 15.4337 21.1587 15.1642 20.3938 15.0751C18.8552 14.8962 17.2392 15.4501 16.1466 16.5513L11.5099 21.1876C9.49668 23.2008 9.49668 26.4762 11.5099 28.4894C12.4619 29.4418 13.7963 29.9953 15.1423 30C16.5013 30.0047 17.8505 29.4504 18.8118 28.4894L21.2595 26.0418C20.9122 26.1 20.5591 26.1297 20.2017 26.1297C19.5048 26.1297 18.8177 26.0168 18.1599 25.7938Z" fill="white" />
</svg>
    