<svg width="40" height="40" viewBox="0 0 40 40" fill="none" xmlns="http://www.w3.org/2000/svg">
    <rect width="40" height="40" rx="20" fill="#CD3EFF"/>
    <path d="M11.0784 17.3606C12.3182 17.3606 13.2318 17.6597 13.8191 18.2579C14.4173 18.8452 14.7164 19.7424 14.7164 20.9496V24.3592C14.7164 24.7724 14.5913 25.0987 14.3411 25.338C14.1019 25.5664 13.7647 25.6806 13.3297 25.6806C12.949 25.6806 12.6336 25.5718 12.3835 25.3543C12.1442 25.1368 12.0137 24.8431 11.992 24.4734C11.8397 24.8649 11.5841 25.1694 11.2252 25.3869C10.8663 25.6044 10.4367 25.7132 9.93646 25.7132C9.38179 25.7132 8.88151 25.6044 8.4356 25.3869C7.98969 25.1585 7.63623 24.8486 7.37521 24.457C7.12507 24.0546 7 23.6033 7 23.103C7 22.5266 7.14682 22.0698 7.44047 21.7327C7.74499 21.3846 8.22352 21.1345 8.87607 20.9822C9.52862 20.83 10.4096 20.7538 11.5189 20.7538H11.9593V20.5581C11.9593 20.1774 11.8723 19.9055 11.6983 19.7424C11.5243 19.5684 11.2307 19.4814 10.8174 19.4814C10.3715 19.4814 9.71894 19.6336 8.85976 19.9382C8.60961 20.0252 8.39754 20.0687 8.22352 20.0687C7.95163 20.0687 7.73411 19.9708 7.57098 19.775C7.40784 19.5793 7.32627 19.3237 7.32627 19.0083C7.32627 18.769 7.37521 18.5733 7.4731 18.421C7.57098 18.2687 7.72868 18.1328 7.94619 18.0132C8.32684 17.8174 8.80538 17.6597 9.38179 17.5401C9.95821 17.4204 10.5237 17.3606 11.0784 17.3606ZM10.6216 23.7719C11.0132 23.7719 11.334 23.6359 11.5841 23.364C11.8343 23.0813 11.9593 22.7224 11.9593 22.2873V22.0916H11.6983C11.0023 22.0916 10.5074 22.1568 10.2138 22.2873C9.92014 22.407 9.77332 22.6136 9.77332 22.9073C9.77332 23.1574 9.84945 23.364 10.0017 23.5272C10.1648 23.6903 10.3715 23.7719 10.6216 23.7719Z" fill="white"/>
    <path d="M21.3357 17.3606C22.0318 17.3606 22.6463 17.5292 23.1792 17.8663C23.7121 18.2035 24.1254 18.6875 24.419 19.3182C24.7235 19.9382 24.8758 20.6614 24.8758 21.488C24.8758 22.3145 24.7235 23.0486 24.419 23.6903C24.1254 24.332 23.7067 24.8323 23.1629 25.1912C22.63 25.5392 22.0209 25.7132 21.3357 25.7132C20.8028 25.7132 20.3134 25.6044 19.8675 25.3869C19.4325 25.1694 19.1008 24.8703 18.8724 24.4897C18.8398 24.8595 18.6929 25.1531 18.4319 25.3706C18.1818 25.5773 17.8501 25.6806 17.4368 25.6806C17.0018 25.6806 16.6537 25.5609 16.3927 25.3217C16.1426 25.0715 16.0175 24.7453 16.0175 24.3429V15.3051C16.0175 14.9244 16.1534 14.6145 16.4253 14.3752C16.6972 14.1251 17.0561 14 17.502 14C17.9262 14 18.2688 14.1142 18.5298 14.3426C18.7908 14.571 18.9213 14.8755 18.9213 15.2562V18.5026C19.1606 18.1545 19.4923 17.8772 19.9165 17.6706C20.3515 17.4639 20.8246 17.3606 21.3357 17.3606ZM20.4385 23.5435C20.9388 23.5435 21.3249 23.3695 21.5968 23.0214C21.8687 22.6625 22.0046 22.1514 22.0046 21.488C22.0046 20.8572 21.8687 20.3732 21.5968 20.036C21.3357 19.6989 20.9551 19.5303 20.4548 19.5303C19.9436 19.5303 19.5521 19.7043 19.2802 20.0524C19.0083 20.3895 18.8724 20.8789 18.8724 21.5206C18.8724 22.1731 19.0083 22.6734 19.2802 23.0214C19.5521 23.3695 19.9382 23.5435 20.4385 23.5435Z" fill="white"/>
    <path d="M29.7536 25.7132C28.4485 25.7132 27.4153 25.3434 26.654 24.6039C25.8927 23.8643 25.512 22.8583 25.512 21.5858C25.512 20.7484 25.6969 20.0089 26.0667 19.3672C26.4365 18.7255 26.9531 18.2307 27.6165 17.8826C28.2908 17.5346 29.0575 17.3606 29.9167 17.3606C30.3735 17.3606 30.8303 17.4204 31.2871 17.5401C31.7439 17.6597 32.1463 17.8283 32.4943 18.0458C32.8314 18.2524 33 18.5678 33 18.992C33 19.3291 32.9184 19.6065 32.7553 19.824C32.603 20.0306 32.4018 20.1339 32.1517 20.1339C31.9886 20.1339 31.8309 20.1122 31.6786 20.0687C31.5263 20.0143 31.3578 19.9382 31.1729 19.8403C30.9554 19.7424 30.7705 19.6717 30.6182 19.6282C30.4659 19.5738 30.2974 19.5466 30.1125 19.5466C29.0358 19.5466 28.4974 20.2046 28.4974 21.5206C28.4974 22.1731 28.6334 22.6734 28.9053 23.0214C29.188 23.3586 29.5905 23.5272 30.1125 23.5272C30.2974 23.5272 30.4659 23.5054 30.6182 23.4619C30.7813 23.4075 30.9608 23.3314 31.1566 23.2335C31.3741 23.1356 31.5481 23.0649 31.6786 23.0214C31.82 22.9671 31.9722 22.9399 32.1354 22.9399C32.3855 22.9399 32.5867 23.0486 32.739 23.2662C32.9021 23.4728 32.9837 23.7447 32.9837 24.0818C32.9837 24.2885 32.9402 24.4788 32.8532 24.6528C32.7662 24.8159 32.6465 24.941 32.4943 25.028C31.7438 25.4848 30.8303 25.7132 29.7536 25.7132Z" fill="white"/>
    </svg>
    