<svg width="22" height="23" viewBox="0 0 22 23" fill="none" xmlns="http://www.w3.org/2000/svg">
<path d="M11 14.5698C11.8527 14.5698 12.5775 14.2713 13.1744 13.6744C13.7713 13.0775 14.0698 12.3527 14.0698 11.5C14.0698 10.6473 13.7713 9.92248 13.1744 9.32558C12.5775 8.72868 11.8527 8.43023 11 8.43023C10.1473 8.43023 9.42248 8.72868 8.82558 9.32558C8.22868 9.92248 7.93023 10.6473 7.93023 11.5C7.93023 12.3527 8.22868 13.0775 8.82558 13.6744C9.42248 14.2713 10.1473 14.5698 11 14.5698ZM11 16.1047C9.72093 16.1047 8.63355 15.6571 7.73786 14.7621C6.84285 13.8664 6.39535 12.7791 6.39535 11.5C6.39535 10.2209 6.84285 9.13355 7.73786 8.23786C8.63355 7.34285 9.72093 6.89535 11 6.89535C12.2791 6.89535 13.3664 7.34285 14.2621 8.23786C15.1571 9.13355 15.6047 10.2209 15.6047 11.5C15.6047 12.7791 15.1571 13.8664 14.2621 14.7621C13.3664 15.6571 12.2791 16.1047 11 16.1047ZM0 12.2674V10.7326H3.83721V12.2674H0ZM18.1628 12.2674V10.7326H22V12.2674H18.1628ZM10.2326 4.33721V0.5H11.7674V4.33721H10.2326ZM10.2326 22.5V18.6628H11.7674V22.5H10.2326ZM5.39767 6.97209L3.04419 4.6186L4.1186 3.54419L6.47209 5.89767L5.39767 6.97209ZM17.8814 19.4558L15.5279 17.1023L16.6023 16.0279L18.9558 18.3814L17.8814 19.4558ZM16.6023 6.97209L15.5279 5.89767L17.8814 3.54419L18.9558 4.6186L16.6023 6.97209ZM4.1186 19.4558L3.04419 18.3814L5.39767 16.0279L6.47209 17.1023L4.1186 19.4558Z" fill="white"/>
</svg>
