<svg width="132" height="25" viewBox="0 0 132 25" fill="none" xmlns="http://www.w3.org/2000/svg">
    <path fill-rule="evenodd" clip-rule="evenodd" d="M0.000899129 12.5008C0.000899129 5.87769 5.37847 0.5 12.0009 0.5C16.4384 0.500102 20.3166 2.9144 22.3926 6.5H17C13.692 6.5 11 9.192 11 12.5C11 15.808 13.692 18.5 17 18.5H22.3925C20.3163 22.0856 16.4378 24.4999 12.0001 24.5C9.56329 24.4964 7.19503 23.7379 5.19465 22.3531L0.527459 23.9086C0.214735 24.0128 -0.0830449 23.7151 0.0212111 23.4023L1.64777 18.5227C0.580775 16.6944 0.00489938 14.6202 0.000899129 12.5008ZM24 12.5538C24.0001 12.5359 24.0001 12.5179 24.0001 12.5C24.0001 12.4821 24.0001 12.4641 24 12.4462V12.5538ZM15 12.5C15 13.604 15.896 14.5 17 14.5C18.104 14.5 19 13.604 19 12.5C19 11.396 18.104 10.5 17 10.5C15.896 10.5 15 11.396 15 12.5Z" fill="white"/>
    <path d="M36.76 21.24C35.8133 21.24 34.9333 21.0667 34.12 20.72C33.32 20.3733 32.6267 19.8933 32.04 19.28C31.4667 18.6533 31.0467 17.9267 30.78 17.1L33.04 16.12C33.4 16.9733 33.92 17.6467 34.6 18.14C35.28 18.62 36.0467 18.86 36.9 18.86C37.38 18.86 37.7933 18.7867 38.14 18.64C38.5 18.48 38.7733 18.2667 38.96 18C39.16 17.7333 39.26 17.4133 39.26 17.04C39.26 16.6 39.1267 16.24 38.86 15.96C38.6067 15.6667 38.22 15.44 37.7 15.28L34.84 14.36C33.68 14 32.8067 13.46 32.22 12.74C31.6333 12.02 31.34 11.1733 31.34 10.2C31.34 9.34667 31.5467 8.59333 31.96 7.94C32.3867 7.28667 32.9733 6.78 33.72 6.42C34.48 6.04667 35.3467 5.86 36.32 5.86C37.2133 5.86 38.0333 6.02 38.78 6.34C39.5267 6.64667 40.1667 7.08 40.7 7.64C41.2467 8.18667 41.6533 8.83333 41.92 9.58L39.68 10.58C39.3867 9.83333 38.9467 9.26 38.36 8.86C37.7733 8.44667 37.0933 8.24 36.32 8.24C35.8667 8.24 35.4667 8.32 35.12 8.48C34.7733 8.62667 34.5 8.84 34.3 9.12C34.1133 9.38667 34.02 9.70667 34.02 10.08C34.02 10.4933 34.1533 10.86 34.42 11.18C34.6867 11.4867 35.0933 11.7267 35.64 11.9L38.38 12.76C39.5667 13.1467 40.4533 13.68 41.04 14.36C41.64 15.04 41.94 15.88 41.94 16.88C41.94 17.7333 41.72 18.4867 41.28 19.14C40.84 19.7933 40.2333 20.3067 39.46 20.68C38.6867 21.0533 37.7867 21.24 36.76 21.24ZM44.3892 21V6.1H54.2892V8.5H47.1092V12.32H53.8892V14.72H47.1092V18.6H54.2892V21H44.3892ZM63.6238 21.24C62.5304 21.24 61.5104 21.0467 60.5638 20.66C59.6171 20.2733 58.7904 19.7333 58.0838 19.04C57.3771 18.3467 56.8238 17.5333 56.4238 16.6C56.0371 15.6533 55.8438 14.6333 55.8438 13.54C55.8438 12.4333 56.0371 11.4133 56.4238 10.48C56.8104 9.54667 57.3571 8.73333 58.0638 8.04C58.7704 7.34667 59.5971 6.81333 60.5438 6.44C61.4904 6.05333 62.5171 5.86 63.6238 5.86C64.7304 5.86 65.7571 6.05333 66.7038 6.44C67.6504 6.82667 68.4771 7.36667 69.1838 8.06C69.8904 8.74 70.4371 9.54667 70.8238 10.48C71.2238 11.4133 71.4238 12.4333 71.4238 13.54C71.4238 14.6333 71.2238 15.6533 70.8238 16.6C70.4238 17.5333 69.8704 18.3467 69.1638 19.04C68.4571 19.7333 67.6304 20.2733 66.6838 20.66C65.7504 21.0467 64.7304 21.24 63.6238 21.24ZM63.6238 18.76C64.3571 18.76 65.0304 18.6333 65.6438 18.38C66.2571 18.1133 66.7904 17.7467 67.2438 17.28C67.7104 16.8133 68.0638 16.26 68.3038 15.62C68.5571 14.98 68.6838 14.2867 68.6838 13.54C68.6838 12.7933 68.5571 12.1067 68.3038 11.48C68.0638 10.84 67.7104 10.2867 67.2438 9.82C66.7904 9.34 66.2571 8.97333 65.6438 8.72C65.0304 8.46667 64.3571 8.34 63.6238 8.34C62.9038 8.34 62.2371 8.46667 61.6238 8.72C61.0104 8.97333 60.4704 9.34 60.0038 9.82C59.5504 10.2867 59.1971 10.84 58.9438 11.48C58.6904 12.1067 58.5638 12.7933 58.5638 13.54C58.5638 14.2867 58.6904 14.98 58.9438 15.62C59.1971 16.26 59.5504 16.8133 60.0038 17.28C60.4704 17.7467 61.0104 18.1133 61.6238 18.38C62.2371 18.6333 62.9038 18.76 63.6238 18.76ZM76.9023 21L72.6223 6.1H74.2423L77.9423 19.44H77.6023L81.4023 6.1H83.1023L86.8823 19.44H86.5223L90.2423 6.1H91.8623L87.5823 21H85.8823L82.0623 7.6H82.4223L78.6023 21H76.9023ZM95.9291 21.24C95.2491 21.24 94.6424 21.1133 94.1091 20.86C93.5757 20.5933 93.1557 20.2333 92.8491 19.78C92.5424 19.3267 92.3891 18.8067 92.3891 18.22C92.3891 17.66 92.5091 17.1533 92.7491 16.7C92.9891 16.2333 93.3624 15.84 93.8691 15.52C94.3757 15.2 95.0224 14.9733 95.8091 14.84L100.009 14.14V15.5L96.1691 16.14C95.3957 16.2733 94.8357 16.52 94.4891 16.88C94.1557 17.24 93.9891 17.6667 93.9891 18.16C93.9891 18.64 94.1757 19.0467 94.5491 19.38C94.9357 19.7133 95.4291 19.88 96.0291 19.88C96.7624 19.88 97.4024 19.7267 97.9491 19.42C98.4957 19.1 98.9224 18.6733 99.2291 18.14C99.5357 17.6067 99.6891 17.0133 99.6891 16.36V13.64C99.6891 13 99.4557 12.48 98.9891 12.08C98.5224 11.68 97.9157 11.48 97.1691 11.48C96.5157 11.48 95.9424 11.6467 95.4491 11.98C94.9557 12.3 94.5891 12.72 94.3491 13.24L92.9891 12.5C93.1891 12.0467 93.5024 11.6333 93.9291 11.26C94.3691 10.8867 94.8691 10.5933 95.4291 10.38C95.9891 10.1533 96.5691 10.04 97.1691 10.04C97.9557 10.04 98.6491 10.1933 99.2491 10.5C99.8624 10.8067 100.336 11.2333 100.669 11.78C101.016 12.3133 101.189 12.9333 101.189 13.64V21H99.6891V18.86L99.9091 19.08C99.7224 19.48 99.4291 19.8467 99.0291 20.18C98.6424 20.5 98.1824 20.76 97.6491 20.96C97.1291 21.1467 96.5557 21.24 95.9291 21.24ZM104.274 21V5.86H105.774V21H104.274ZM108.845 21V5.86H110.345V21H108.845ZM118.295 21.24C117.295 21.24 116.388 21 115.575 20.52C114.775 20.0267 114.142 19.3533 113.675 18.5C113.208 17.6467 112.975 16.68 112.975 15.6C112.975 14.52 113.202 13.5667 113.655 12.74C114.108 11.9 114.722 11.24 115.495 10.76C116.282 10.28 117.162 10.04 118.135 10.04C118.908 10.04 119.595 10.1867 120.195 10.48C120.808 10.76 121.328 11.1467 121.755 11.64C122.182 12.12 122.508 12.6667 122.735 13.28C122.962 13.88 123.075 14.5 123.075 15.14C123.075 15.2733 123.068 15.4267 123.055 15.6C123.042 15.76 123.022 15.9267 122.995 16.1H113.935V14.7H122.135L121.415 15.3C121.535 14.5667 121.448 13.9133 121.155 13.34C120.875 12.7533 120.468 12.2933 119.935 11.96C119.402 11.6133 118.802 11.44 118.135 11.44C117.468 11.44 116.848 11.6133 116.275 11.96C115.715 12.3067 115.275 12.7933 114.955 13.42C114.635 14.0333 114.508 14.7667 114.575 15.62C114.508 16.4733 114.642 17.22 114.975 17.86C115.322 18.4867 115.788 18.9733 116.375 19.32C116.975 19.6667 117.615 19.84 118.295 19.84C119.082 19.84 119.742 19.6533 120.275 19.28C120.808 18.9067 121.242 18.44 121.575 17.88L122.855 18.56C122.642 19.04 122.315 19.4867 121.875 19.9C121.435 20.3 120.908 20.6267 120.295 20.88C119.695 21.12 119.028 21.24 118.295 21.24ZM129.82 21.12C128.86 21.12 128.12 20.84 127.6 20.28C127.08 19.72 126.82 18.92 126.82 17.88V11.78H124.84V10.28H125.34C125.793 10.28 126.153 10.1333 126.42 9.84C126.686 9.53333 126.82 9.15333 126.82 8.7V7.8H128.32V10.28H130.68V11.78H128.32V17.88C128.32 18.24 128.373 18.56 128.48 18.84C128.586 19.1067 128.766 19.32 129.02 19.48C129.286 19.64 129.64 19.72 130.08 19.72C130.186 19.72 130.313 19.7133 130.46 19.7C130.606 19.6867 130.733 19.6733 130.84 19.66V21C130.68 21.04 130.5 21.0667 130.3 21.08C130.1 21.1067 129.94 21.12 129.82 21.12Z" fill="white"/>
    </svg>
    