<svg width="222" height="300" viewBox="0 0 222 300" fill="none" xmlns="http://www.w3.org/2000/svg">
    <path d="M175.96 78.9683C175.96 80.7036 175.904 82.4243 175.792 84.1306C175.161 93.9713 172.675 103.604 168.464 112.521C168.432 112.597 168.393 112.667 168.361 112.738C168.165 113.152 167.964 113.565 167.757 113.973C166.505 116.495 165.116 118.946 163.596 121.317C156.653 132.198 147.137 141.201 135.889 147.531C124.64 153.861 112.006 157.323 99.1021 157.611L99.88 202.347L110.025 197.005L111.837 200.449L99.9563 206.704L101.409 289.791L101.425 290.901L93.5808 291.559L93.597 291.532L96.0666 157.616C85.6802 157.467 75.4269 155.256 65.9019 151.112C56.377 146.968 47.7702 140.972 40.5813 133.475C40.0864 132.963 39.5966 132.436 39.118 131.913C39.0962 131.892 39.08 131.87 39.0635 131.853C33.0739 125.322 28.2298 117.825 24.7353 109.681C24.8116 109.768 24.8931 109.85 24.9693 109.937C17.0718 91.4688 16.5362 70.6797 23.4722 51.8295C30.4082 32.9793 44.2907 17.4955 62.2749 8.55083C62.5469 8.41484 62.8244 8.28428 63.0964 8.14829C80.8861 -0.420494 101.246 -1.99275 120.14 3.74315C139.034 9.47905 155.084 22.1044 165.108 39.1167C165.587 39.9219 166.049 40.7433 166.495 41.5701C172.722 53.0509 175.976 65.9077 175.96 78.9683V78.9683Z" fill="#3669E9" fill-opacity="0.1" />
    <path d="M118.043 291.742C130.982 291.742 141.471 281.253 141.471 268.314C141.471 255.376 130.982 244.887 118.043 244.887C105.105 244.887 94.6157 255.376 94.6157 268.314C94.6157 281.253 105.105 291.742 118.043 291.742Z" fill="#3669E9" />
    <path d="M145.733 284.418H124.744V291.536H145.733V284.418Z" fill="#3669E9" />
    <path d="M145.881 291.536C147.109 291.536 148.105 288.88 148.105 285.605C148.105 282.329 147.109 279.674 145.881 279.674C144.652 279.674 143.656 282.329 143.656 285.605C143.656 288.88 144.652 291.536 145.881 291.536Z" fill="#3669E9" />
    <path d="M140.837 283.875H119.848V290.992H140.837V283.875Z" fill="#3669E9" />
    <path d="M140.985 290.992C142.213 290.992 143.209 288.336 143.209 285.061C143.209 281.785 142.213 279.13 140.985 279.13C139.757 279.13 138.761 281.785 138.761 285.061C138.761 288.336 139.757 290.992 140.985 290.992Z" fill="#3669E9" />
    <path d="M95.3178 246.528C93.4261 238.056 99.473 229.496 108.824 227.408C118.175 225.32 127.289 230.495 129.18 238.966C131.072 247.438 124.875 250.563 115.524 252.651C106.173 254.739 97.2095 254.999 95.3178 246.528Z" fill="#84A7FF" />
    <path d="M127.047 266.98C125.822 267.005 124.62 266.645 123.611 265.949C122.602 265.254 121.836 264.259 121.423 263.106C121.4 263.038 121.391 262.966 121.396 262.895C121.401 262.824 121.42 262.754 121.451 262.69C121.483 262.626 121.527 262.569 121.581 262.522C121.635 262.475 121.698 262.439 121.765 262.417C121.833 262.394 121.905 262.385 121.976 262.39C122.047 262.395 122.117 262.414 122.181 262.445C122.245 262.477 122.302 262.521 122.349 262.575C122.396 262.629 122.431 262.692 122.454 262.759C123.278 265.211 126.098 266.494 128.74 265.617C130.051 265.19 131.141 264.262 131.771 263.034C132.041 262.506 132.204 261.929 132.249 261.337C132.294 260.745 132.222 260.15 132.035 259.587C132.012 259.519 132.003 259.448 132.008 259.376C132.013 259.305 132.032 259.235 132.064 259.171C132.095 259.107 132.139 259.05 132.193 259.003C132.247 258.957 132.31 258.921 132.377 258.898C132.445 258.875 132.517 258.866 132.588 258.871C132.659 258.876 132.729 258.895 132.793 258.926C132.857 258.958 132.914 259.002 132.961 259.056C133.008 259.11 133.044 259.173 133.066 259.24C133.299 259.94 133.39 260.678 133.335 261.413C133.28 262.148 133.079 262.864 132.744 263.521C131.984 265.006 130.668 266.131 129.082 266.65C128.426 266.868 127.739 266.98 127.047 266.98V266.98Z" fill="white" />
    <path d="M137.483 270.164C138.112 271.394 138.227 272.823 137.802 274.137C137.377 275.451 136.448 276.543 135.218 277.171C133.989 277.8 132.56 277.915 131.246 277.49C129.931 277.065 128.84 276.136 128.211 274.906L128.206 274.897C126.9 272.336 128.705 270.746 131.267 269.439C133.829 268.132 136.176 267.603 137.483 270.164Z" fill="white" />
    <path opacity="0.1" d="M221.098 291.953H13.844C13.6998 291.953 13.5614 291.896 13.4594 291.794C13.3574 291.692 13.3 291.553 13.3 291.409C13.3 291.265 13.3574 291.126 13.4594 291.024C13.5614 290.922 13.6998 290.865 13.844 290.865H221.098C221.242 290.865 221.381 290.922 221.483 291.024C221.585 291.126 221.642 291.265 221.642 291.409C221.642 291.553 221.585 291.692 221.483 291.794C221.381 291.896 221.242 291.953 221.098 291.953Z" fill="white" />
    <path d="M112.802 299.329C114.984 298.766 115.3 292.675 113.507 285.725C111.715 278.774 108.493 273.596 106.311 274.159C104.129 274.721 103.813 280.812 105.606 287.763C107.398 294.713 110.62 299.891 112.802 299.329Z" fill="#3669E9" />
    <path d="M152.14 240.387H143.227C143.142 240.387 143.059 240.361 142.989 240.313C142.919 240.265 142.865 240.197 142.835 240.118C142.804 240.038 142.798 239.952 142.818 239.869C142.837 239.787 142.882 239.712 142.945 239.655L151.05 232.314H143.561C143.45 232.314 143.343 232.27 143.264 232.191C143.185 232.112 143.141 232.005 143.141 231.894C143.141 231.782 143.185 231.675 143.264 231.597C143.343 231.518 143.45 231.473 143.561 231.473H152.14C152.225 231.473 152.308 231.499 152.378 231.547C152.448 231.595 152.502 231.663 152.532 231.743C152.563 231.822 152.569 231.908 152.549 231.991C152.53 232.074 152.485 232.148 152.422 232.205L144.317 239.546H152.14C152.252 239.546 152.359 239.59 152.437 239.669C152.516 239.748 152.561 239.855 152.561 239.966C152.561 240.078 152.516 240.185 152.437 240.264C152.359 240.342 152.252 240.387 152.14 240.387V240.387Z" fill="#FDBD00" />
    <path d="M163.49 227.356H154.576C154.491 227.356 154.408 227.33 154.338 227.282C154.268 227.234 154.214 227.166 154.184 227.087C154.153 227.007 154.148 226.921 154.167 226.838C154.187 226.756 154.231 226.681 154.294 226.624L162.399 219.283H154.91C154.799 219.283 154.692 219.239 154.613 219.16C154.534 219.081 154.49 218.974 154.49 218.863C154.49 218.751 154.534 218.644 154.613 218.565C154.692 218.487 154.799 218.442 154.91 218.442H163.49C163.574 218.442 163.657 218.468 163.727 218.516C163.797 218.564 163.851 218.632 163.882 218.712C163.912 218.791 163.918 218.877 163.899 218.96C163.879 219.043 163.835 219.117 163.772 219.174L155.666 226.515H163.49C163.601 226.515 163.708 226.559 163.787 226.638C163.866 226.717 163.91 226.824 163.91 226.935C163.91 227.047 163.866 227.154 163.787 227.233C163.708 227.311 163.601 227.356 163.49 227.356V227.356Z" fill="#FDBD00" />
    <path d="M158.446 213.064H149.532C149.447 213.064 149.364 213.038 149.294 212.99C149.224 212.942 149.171 212.874 149.14 212.795C149.109 212.715 149.104 212.629 149.123 212.546C149.143 212.464 149.187 212.389 149.25 212.332L157.355 204.991H149.866C149.755 204.991 149.648 204.947 149.569 204.868C149.49 204.789 149.446 204.682 149.446 204.571C149.446 204.459 149.49 204.352 149.569 204.274C149.648 204.195 149.755 204.15 149.866 204.15H158.446C158.53 204.15 158.613 204.176 158.683 204.224C158.753 204.272 158.807 204.34 158.838 204.42C158.868 204.499 158.874 204.585 158.855 204.668C158.835 204.751 158.791 204.825 158.728 204.882L150.623 212.223H158.446C158.557 212.223 158.664 212.267 158.743 212.346C158.822 212.425 158.866 212.532 158.866 212.643C158.866 212.755 158.822 212.862 158.743 212.941C158.664 213.019 158.557 213.064 158.446 213.064V213.064Z" fill="#FDBD00" />
    <path d="M179.494 91.3913L186.454 85.8246C181.047 85.2281 178.826 88.1769 177.917 90.5109C173.692 88.7569 169.094 91.0557 169.094 91.0557L183.02 96.1112C182.317 94.2348 181.094 92.5975 179.494 91.3913V91.3913Z" fill="#5B6987" />
    <path d="M10.4004 10.7291L17.3604 5.16237C11.9535 4.56584 9.73184 7.51467 8.82262 9.8487C4.59848 8.09468 0 10.3934 0 10.3934L13.9258 15.449C13.2233 13.5725 12.0003 11.9352 10.4004 10.7291V10.7291Z" fill="#5B6987" />
    <path d="M207.083 19.5867L214.043 14.02C208.636 13.4234 206.414 16.3723 205.505 18.7063C201.281 16.9523 196.683 19.251 196.683 19.251L210.608 24.3066C209.906 22.4301 208.683 20.7929 207.083 19.5867Z" fill="#5B6987" />
</svg>