<svg width="18" height="18" viewBox="0 0 18 18" fill="none" xmlns="http://www.w3.org/2000/svg">
    <path d="M4.4386 17.0175L9 14.2982L13.5614 17.0175C13.7173 17.115 13.883 17.1587 14.0585 17.1485C14.2339 17.1392 14.3899 17.0858 14.5263 16.9883C14.6628 16.8908 14.77 16.7595 14.848 16.5942C14.9259 16.4281 14.9357 16.2476 14.8772 16.0526L13.6784 10.9064L17.6842 7.4269C17.8402 7.29045 17.9376 7.1345 17.9766 6.95906C18.0156 6.78363 18.0058 6.61793 17.9474 6.46199C17.8889 6.30604 17.7965 6.17427 17.6702 6.06667C17.5431 5.95984 17.3821 5.89669 17.1871 5.87719L11.8947 5.40936L9.81871 0.526316C9.74074 0.350878 9.62885 0.219103 9.48304 0.130994C9.33645 0.0436647 9.17544 0 9 0C8.82456 0 8.66394 0.0436647 8.51813 0.130994C8.37154 0.219103 8.25926 0.350878 8.18129 0.526316L6.10526 5.40936L0.812866 5.87719C0.617934 5.89669 0.45731 5.95984 0.330994 6.06667C0.203899 6.17427 0.111111 6.30604 0.0526317 6.46199C-0.00584788 6.61793 -0.0155946 6.78363 0.0233918 6.95906C0.0623781 7.1345 0.159844 7.29045 0.315789 7.4269L4.32164 10.9064L3.12281 16.0526C3.06433 16.2476 3.07407 16.4281 3.15205 16.5942C3.23002 16.7595 3.33723 16.8908 3.47368 16.9883C3.61014 17.0858 3.76608 17.1392 3.94152 17.1485C4.11696 17.1587 4.28265 17.115 4.4386 17.0175Z" fill="#FDBD00" />
</svg>
    